PathFileType	4	(X/Y/Z)	D:\TRACE\spotREDO_2-26-24\spot_Both_Motion_1_1-v60.trc
DataRate	CameraRate	NumFrames	NumMarkers	Units	OrigDataRate	OrigDataStartFrame	OrigNumFrames
100.00	100.00	      35	9	mm	100.00	1	      7000
Frame#	Time	front left toe			Front right toe			aft left toe			aft right toe			Arm			FL body			FR body			AL Body			AR Body			
		X1	Y1	Z1	X2	Y2	Z2	X3	Y3	Z3	X4	Y4	Z4	X5	Y5	Z5	X6	Y6	Z6	X7	Y7	Z7	X8	Y8	Z8	X9	Y9	Z9	

1	0.000	-214.66397	136.54402	-138.70453	284.00943	22.17930	-146.26376	-249.43700	24.19693	432.00742	259.95471	27.53594	452.92505	45.58964	889.92255	-361.94321	-35.09654	586.02325	-230.38618	120.92307	591.79132	-226.95537	-58.93926	558.51001	652.88147	81.09860	564.36798	657.76770	
2	0.010	-212.96448	139.39006	-137.54558	283.51154	22.19264	-146.55862	-249.53102	24.04736	432.07602	259.76141	27.50375	452.86301	45.21526	890.32190	-362.27646	-35.97797	586.66528	-229.75981	120.01691	592.30743	-226.34314	-59.35139	558.38800	653.49280	81.60707	564.15936	658.29498	
3	0.020	-210.87029	139.87422	-134.91232	283.33469	22.35159	-146.61810	-249.56601	23.92992	432.12170	259.83231	27.52809	452.95868	44.56162	890.84845	-362.29364	-36.58310	587.20197	-229.08810	119.34659	592.92883	-226.01405	-60.08976	558.16284	654.02106	81.03743	564.01874	658.91711	
4	0.030	-207.59210	137.64670	-131.86252	283.42725	22.16807	-146.69359	-249.62706	23.83168	432.15686	259.76859	27.54377	452.89795	44.00282	891.31445	-362.57413	-37.47014	587.72913	-228.72466	118.33815	593.25006	-225.23958	-60.88310	557.75470	654.46161	80.70860	563.71466	659.58868	
5	0.040	-204.84575	135.86494	-127.64466	283.31488	22.35806	-146.63080	-249.68361	23.72494	432.21246	259.65375	27.64635	452.90225	43.09868	892.03278	-363.13312	-38.05368	588.04456	-228.23602	117.70188	594.05603	-225.01996	-61.37622	557.66858	654.92621	79.39329	563.56036	659.88251	
6	0.050	-202.44763	133.96791	-122.64496	283.51614	22.15310	-146.66676	-249.73340	23.67249	432.24469	259.74442	27.85303	452.92557	42.70419	892.43042	-363.48853	-38.99046	588.23370	-228.04845	116.98082	594.59485	-224.75017	-62.35950	557.57562	655.26556	79.05866	563.31299	660.03290	
7	0.060	-200.66510	133.70038	-118.78720	283.46045	22.19036	-146.71313	-249.78429	23.62507	432.27335	259.73895	28.00802	452.93866	42.10870	892.99927	-363.90787	-39.86473	588.21075	-227.62109	116.07443	594.97577	-224.27188	-63.22603	557.49036	655.48712	78.12691	563.68579	660.28723	
8	0.070	-198.96617	132.99608	-114.83512	283.34799	22.20681	-146.75847	-249.78941	23.63434	432.26340	259.76178	28.04994	452.94159	41.61538	893.46173	-364.34787	-41.16373	588.37921	-227.28300	114.99319	595.16565	-223.99515	-63.53204	557.04205	655.49750	77.27658	563.87402	660.67023	
9	0.080	-197.54308	133.37463	-112.14308	283.01721	22.16984	-146.95030	-249.86595	23.64088	432.31992	259.67502	27.96652	452.93472	41.41223	893.94324	-364.86493	-42.31988	588.55707	-227.13416	113.65349	595.57483	-224.10278	-64.47556	557.24408	656.10431	76.49663	564.10095	660.86554	
10	0.090	-195.11649	133.08949	-109.63165	282.95691	22.19091	-147.01123	-249.94557	23.60633	432.30307	259.70099	28.02211	452.88498	41.22567	894.50696	-365.12851	-43.67608	588.89880	-226.85287	112.07898	595.80511	-223.77893	-65.33812	557.22180	656.43427	75.93474	564.14069	660.99133	
11	0.100	-192.80412	131.81776	-106.25531	282.77579	22.24866	-147.18501	-249.95287	23.62400	432.29019	259.65372	28.01973	452.89301	40.78009	895.14471	-365.45975	-45.23199	589.09766	-226.85556	110.79726	596.02283	-223.69206	-65.60305	557.06213	656.47986	75.01285	564.06671	661.15723	
12	0.110	-190.45695	129.79918	-104.03613	282.66077	22.31517	-147.27406	-249.92218	23.62290	432.32468	259.61154	28.03148	452.79105	40.20660	895.92297	-365.92868	-46.58579	589.32471	-226.51468	109.45256	596.32367	-223.85371	-66.53616	557.19061	656.46741	74.26427	564.08984	661.04504	
13	0.120	-186.76888	124.32960	-101.30776	282.69458	22.32646	-147.25491	-249.99258	23.63473	432.31281	259.53934	28.10906	452.78232	39.86593	896.54535	-366.11414	-47.79834	589.40601	-226.44165	108.12973	596.59821	-223.64072	-68.36382	557.23566	656.51886	73.00074	563.97803	661.01788	
14	0.130	-185.45233	117.77139	-99.68069	282.71341	22.34597	-147.23785	-250.16513	23.49319	432.40875	259.39066	28.12961	452.74255	39.83205	897.19708	-366.30008	-49.04715	589.68640	-226.44424	106.76569	596.98810	-223.79668	-69.57807	557.23285	656.65155	71.81236	564.00458	661.22284	
15	0.140	-183.80734	108.95740	-98.22293	282.63290	22.44415	-147.24821	-250.30965	23.42623	432.49051	259.41342	28.23422	452.72293	39.50422	898.01392	-366.57254	-50.56847	590.06927	-226.47685	105.50652	597.23700	-223.62415	-70.91064	557.19073	656.65375	70.22182	564.13550	661.32874	
16	0.150	-181.91316	98.38429	-96.48853	282.57306	22.40117	-147.36299	-250.35936	23.24923	432.54889	259.18616	28.42751	452.66736	39.25663	898.57562	-366.86154	-51.86081	590.20538	-226.40007	104.23228	597.61591	-223.55127	-72.57489	557.03577	656.72345	68.52685	564.06989	661.32465	
17	0.160	-180.65659	86.96745	-94.73853	282.39856	22.50133	-147.42307	-250.59305	23.14745	432.52823	259.01495	28.63541	452.61954	38.96550	899.16089	-367.37421	-53.08265	590.55951	-226.67148	102.71188	598.01343	-223.71162	-74.03481	556.76434	656.38794	67.04774	563.85022	661.02515	
18	0.170	-179.17645	75.97178	-92.42682	282.34824	22.50883	-147.47925	-250.63434	23.06192	432.49033	258.91254	28.65178	452.58420	38.84543	900.12805	-367.64328	-54.83002	590.91205	-226.85439	101.30986	598.37659	-223.84766	-76.11333	556.85626	656.26337	65.06660	564.06927	661.01508	
19	0.180	-177.66562	65.43455	-90.58080	282.50241	22.56820	-147.28423	-250.65463	23.08665	432.48373	258.86630	28.79934	452.61816	38.51564	900.72186	-367.82214	-56.11948	591.11896	-227.03223	99.66235	598.71143	-224.03088	-77.80141	556.50891	656.01154	63.30153	563.77411	660.69867	
20	0.190	-176.88013	54.77449	-88.29530	282.45056	22.61813	-147.34039	-250.70921	22.87954	432.47479	258.75058	28.81086	452.57019	38.29667	901.30170	-368.15741	-57.08033	591.28180	-227.64861	98.48849	598.84357	-224.04022	-79.72421	556.43237	655.72821	61.32178	563.44678	660.54169	
21	0.200	-175.39345	43.64432	-86.93738	282.40372	22.69233	-147.35156	-250.82036	22.72997	432.46707	258.60788	28.79232	452.52634	37.70700	902.13470	-368.77737	-59.27544	591.67737	-227.69453	96.49351	599.18250	-224.46988	-81.57105	555.84698	654.99530	59.28709	563.32977	660.00244	
22	0.210	-175.16437	33.21502	-86.31171	282.35745	22.76167	-147.38342	-251.07542	22.72592	432.43112	258.59512	28.89421	452.48218	37.45636	902.80829	-369.08890	-61.08380	592.10016	-228.22368	94.56974	599.62531	-224.91095	-83.96485	555.95148	654.73785	57.40261	563.04388	659.82111	
23	0.220	-174.73442	22.90194	-86.00173	282.12378	22.90574	-147.46097	-251.12157	22.57602	432.56531	258.50937	28.93178	452.49371	37.11916	903.31445	-369.42624	-63.18225	592.30634	-228.74368	92.78360	599.50476	-225.30478	-85.83547	555.72888	654.24243	55.44445	562.81592	659.03650	
24	0.230	-174.60548	18.04853	-87.38293	282.11124	23.05915	-147.34924	-251.25195	22.41498	432.62781	258.42001	28.99610	452.45197	36.95248	903.86774	-369.71909	-65.24996	592.33002	-229.28314	90.65426	599.60944	-225.94215	-88.11352	555.61749	653.65900	53.23568	562.47931	658.65033	
25	0.240	-176.08450	17.42924	-86.79132	281.50873	23.20864	-147.86104	-251.23911	22.30386	432.49969	258.37668	28.74827	452.44028	36.56782	904.49548	-370.12891	-67.40730	593.61151	-230.03912	88.62350	600.13110	-226.52621	-90.37475	555.50464	652.93225	50.75094	561.90771	657.76276	
26	0.250	-176.17975	17.26792	-86.57082	281.22672	24.60716	-148.35556	-251.85452	21.70587	432.66125	257.43216	29.45400	451.91577	36.71104	904.98389	-370.20276	-70.10585	595.32367	-230.50719	86.01730	601.43811	-227.27522	-92.55999	555.58301	652.24969	48.59079	561.93585	657.38043	
27	0.260	-177.11360	17.95008	-86.68191	279.64041	24.96395	-148.63365	-252.40709	20.98399	432.68607	256.09665	30.25918	452.09222	37.33768	905.68854	-370.18521	-72.20903	597.16785	-231.25238	83.74170	602.67755	-227.90187	-94.62763	556.16577	651.64142	46.39881	561.47894	656.44177	
28	0.270	-176.92165	17.69737	-86.93034	279.20703	25.15241	-148.76186	-252.63370	20.93056	432.56461	255.60498	30.22304	452.08896	37.71357	906.79474	-370.07874	-74.23517	598.76141	-231.63416	81.75877	603.81042	-228.60669	-96.70808	556.97864	651.13812	44.95846	561.86401	656.17798	
29	0.280	-176.68501	17.67435	-87.01376	279.37567	25.20099	-148.57671	-252.58594	21.07519	432.48349	255.42259	30.55453	451.96851	38.14431	907.55743	-370.39767	-75.89641	600.49335	-231.95703	79.98969	604.82928	-228.57541	-99.10857	557.87140	650.49384	43.32038	562.59222	655.49640	
30	0.290	-176.68517	17.50965	-87.04874	279.43393	25.26876	-148.72166	-252.56335	21.05321	432.34204	255.37315	30.67135	452.12589	38.00528	907.94226	-371.12610	-77.22558	602.00812	-232.50710	78.82678	606.22131	-229.23967	-100.74259	559.13800	650.02448	39.61723	563.81012	654.99933	
31	0.300	-176.72667	17.37053	-87.18913	279.41159	25.21737	-148.64728	-252.77245	20.94429	432.30933	255.09647	30.52316	451.86371	37.63589	908.48114	-371.45535	-78.50822	603.65906	-233.00166	77.35357	607.55817	-229.67267	-101.82478	560.10718	649.49921	37.49694	564.78802	654.56238	
32	0.310	-176.73111	17.43900	-87.45852	279.39093	25.26445	-148.79692	-252.99513	20.83525	432.20453	254.94843	30.66695	451.71481	36.90818	909.39343	-372.60507	-79.69930	604.97235	-233.45512	76.45187	609.13336	-229.96547	-103.83068	561.07001	648.94232	35.83838	565.92609	654.01813	
33	0.320	-176.76921	17.38432	-87.61226	279.33920	25.30309	-148.85690	-253.06509	20.79100	431.97125	254.93547	30.82917	451.60620	36.39659	909.86456	-373.31717	-80.63786	606.59039	-233.71814	75.51144	610.40845	-230.28336	-105.71239	562.64081	648.68939	35.08020	567.00623	653.84015	
34	0.330	-176.92613	17.42578	-87.75873	279.25070	25.30371	-148.91284	-253.18597	20.86825	431.84317	254.86806	30.93911	451.39670	35.27287	910.76532	-374.15546	-81.45924	607.77710	-234.13083	74.62851	611.71039	-230.62277	-107.03712	563.65253	648.11206	34.34050	567.92999	653.43237	
35	0.340	-176.96475	17.45768	-87.93287	279.24002	25.37812	-148.97005	-253.25990	20.80013	431.66281	254.87503	31.05396	451.28137	34.71986	911.56342	-374.99384	-82.23178	608.92450	-234.59117	73.92316	613.12421	-230.89500	-107.56567	564.68683	647.68427	33.06186	569.46698	653.05652	
